<svg xmlns="http://www.w3.org/2000/svg" xmlns:xlink="http://www.w3.org/1999/xlink" width="1964" zoomAndPan="magnify" viewBox="0 0 1473 525.000007" height="700" preserveAspectRatio="xMidYMid meet" version="1.0"><defs><g/><clipPath id="deb7568286"><path d="M 78.753906 167.691406 L 357.96875 167.691406 L 357.96875 325.640625 L 78.753906 325.640625 Z M 78.753906 167.691406 " clip-rule="nonzero"/></clipPath><clipPath id="c8c7bfb9ea"><path d="M 1.398438 37.972656 L 434.824219 37.972656 L 434.824219 199.667969 L 1.398438 199.667969 Z M 1.398438 37.972656 " clip-rule="nonzero"/></clipPath><clipPath id="2868b45ae9"><path d="M 384.808594 228.351562 L 414 228.351562 L 414 279.257812 L 384.808594 279.257812 Z M 384.808594 228.351562 " clip-rule="nonzero"/></clipPath><clipPath id="910988cc5d"><path d="M 384.808594 213.847656 L 414 213.847656 L 414 243.042969 L 384.808594 243.042969 Z M 384.808594 213.847656 " clip-rule="nonzero"/></clipPath><clipPath id="03c1cfceab"><path d="M 390.75 146.253906 L 407.96875 146.253906 L 407.96875 235 L 390.75 235 Z M 390.75 146.253906 " clip-rule="nonzero"/></clipPath><clipPath id="2efce534eb"><path d="M 280.722656 359 L 361 359 L 361 405.539062 L 280.722656 405.539062 Z M 280.722656 359 " clip-rule="nonzero"/></clipPath><clipPath id="489afa4dc4"><path d="M 280.722656 344 L 355 344 L 355 405.539062 L 280.722656 405.539062 Z M 280.722656 344 " clip-rule="nonzero"/></clipPath><clipPath id="7559f0fc49"><path d="M 280.722656 338 L 363.8125 338 L 363.8125 392 L 280.722656 392 Z M 280.722656 338 " clip-rule="nonzero"/></clipPath><clipPath id="965dd1ae2c"><path d="M 284 326.191406 L 353 326.191406 L 353 386 L 284 386 Z M 284 326.191406 " clip-rule="nonzero"/></clipPath><clipPath id="e33b11b6fa"><path d="M 280.722656 326.191406 L 363.8125 326.191406 L 363.8125 372 L 280.722656 372 Z M 280.722656 326.191406 " clip-rule="nonzero"/></clipPath><clipPath id="8f021cdfb1"><path d="M 184 18 L 300.886719 18 L 300.886719 209 L 184 209 Z M 184 18 " clip-rule="nonzero"/></clipPath><clipPath id="abda0b69bf"><rect x="0" width="301" y="0" height="253"/></clipPath><clipPath id="f25509cd73"><path d="M 331 0.425781 L 406 0.425781 L 406 255 L 331 255 Z M 331 0.425781 " clip-rule="nonzero"/></clipPath><clipPath id="8df05e79e3"><rect x="0" width="75" y="0" height="255"/></clipPath><clipPath id="d06565b1a1"><path d="M 402 2 L 849.375 2 L 849.375 255 L 402 255 Z M 402 2 " clip-rule="nonzero"/></clipPath><clipPath id="d3ae672c98"><rect x="0" width="448" y="0" height="253"/></clipPath><clipPath id="5d776dc609"><path d="M 183 216 L 652 216 L 652 344.410156 L 183 344.410156 Z M 183 216 " clip-rule="nonzero"/></clipPath><clipPath id="dee27ab2d4"><rect x="0" width="469" y="0" height="129"/></clipPath><clipPath id="3306aa10aa"><path d="M 0.191406 2 L 115 2 L 115 255 L 0.191406 255 Z M 0.191406 2 " clip-rule="nonzero"/></clipPath><clipPath id="2703824f14"><path d="M 0.191406 18 L 114.933594 18 L 114.933594 209 L 0.191406 209 Z M 0.191406 18 " clip-rule="nonzero"/></clipPath><clipPath id="c9d3a6d61d"><rect x="0" width="115" y="0" height="253"/></clipPath><clipPath id="978f6f67e0"><rect x="0" width="850" y="0" height="345"/></clipPath><clipPath id="57716c597f"><path d="M 78.785156 324.527344 L 161.878906 324.527344 L 161.878906 403.878906 L 78.785156 403.878906 Z M 78.785156 324.527344 " clip-rule="nonzero"/></clipPath><clipPath id="8161a6ec25"><path d="M 4 33 L 83.878906 33 L 83.878906 79.878906 L 4 79.878906 Z M 4 33 " clip-rule="nonzero"/></clipPath><clipPath id="0d7a9bf471"><path d="M 10 19 L 83.878906 19 L 83.878906 79.878906 L 10 79.878906 Z M 10 19 " clip-rule="nonzero"/></clipPath><clipPath id="7f3a7f9c0f"><path d="M 0.855469 12 L 83.878906 12 L 83.878906 66 L 0.855469 66 Z M 0.855469 12 " clip-rule="nonzero"/></clipPath><clipPath id="d3da9ecc29"><path d="M 12 0.527344 L 81 0.527344 L 81 61 L 12 61 Z M 12 0.527344 " clip-rule="nonzero"/></clipPath><clipPath id="321f7a4688"><path d="M 0.855469 0.527344 L 83.878906 0.527344 L 83.878906 46 L 0.855469 46 Z M 0.855469 0.527344 " clip-rule="nonzero"/></clipPath><clipPath id="e421393256"><rect x="0" width="84" y="0" height="80"/></clipPath><clipPath id="c2857b21cb"><path d="M 33 265.988281 L 414.339844 265.988281 L 414.339844 463.613281 L 33 463.613281 Z M 33 265.988281 " clip-rule="nonzero"/></clipPath><clipPath id="cd3b7428dd"><path d="M 22.085938 265.988281 L 405 265.988281 L 405 463.613281 L 22.085938 463.613281 Z M 22.085938 265.988281 " clip-rule="nonzero"/></clipPath></defs><g clip-path="url(#deb7568286)"><path fill="#000000" d="M 78.789062 258.496094 L 78.789062 180.335938 C 78.789062 171.667969 87.3125 165.574219 95.511719 168.382812 L 214.882812 209.265625 C 217.546875 210.175781 220.4375 210.171875 223.097656 209.253906 L 341.179688 168.445312 C 349.382812 165.609375 357.933594 171.707031 357.933594 180.390625 L 357.933594 260.320312 C 357.933594 268.695312 349.871094 274.980469 341.566406 273.890625 C 328.21875 272.132812 308.558594 271.292969 289.726562 277.011719 C 268.765625 283.378906 247.800781 305.296875 235.378906 320.324219 C 229.683594 327.214844 218.4375 327.179688 212.738281 320.285156 C 199.242188 303.964844 175.101562 278.953125 148.257812 270.691406 C 131.097656 265.410156 110.722656 268.285156 96.492188 271.6875 C 87.839844 273.753906 78.789062 267.394531 78.789062 258.496094 Z M 78.789062 258.496094 " fill-opacity="1" fill-rule="nonzero"/></g><g clip-path="url(#c8c7bfb9ea)"><path fill="#000000" d="M 214.113281 38.617188 C 216.667969 37.761719 219.429688 37.761719 221.984375 38.617188 L 426.210938 106.96875 C 437.519531 110.753906 437.519531 126.777344 426.210938 130.5625 L 221.984375 198.917969 C 219.429688 199.773438 216.667969 199.773438 214.113281 198.917969 L 9.890625 130.5625 C -1.421875 126.777344 -1.421875 110.753906 9.890625 106.96875 Z M 214.113281 38.617188 " fill-opacity="1" fill-rule="nonzero"/></g><g clip-path="url(#2868b45ae9)"><path fill="#000000" d="M 385.046875 269.652344 L 394.355469 232.683594 C 394.996094 230.136719 397.277344 228.351562 399.894531 228.351562 C 402.613281 228.351562 404.953125 230.273438 405.496094 232.945312 L 413.015625 270.003906 C 413.984375 274.785156 410.347656 279.257812 405.488281 279.257812 L 392.496094 279.257812 C 387.488281 279.257812 383.820312 274.527344 385.046875 269.652344 Z M 385.046875 269.652344 " fill-opacity="1" fill-rule="nonzero"/></g><g clip-path="url(#910988cc5d)"><path fill="#000000" d="M 414 228.445312 C 414 229.40625 413.90625 230.355469 413.722656 231.292969 C 413.535156 232.234375 413.257812 233.148438 412.890625 234.03125 C 412.523438 234.917969 412.074219 235.757812 411.542969 236.554688 C 411.007812 237.351562 410.402344 238.089844 409.726562 238.769531 C 409.046875 239.445312 408.3125 240.050781 407.515625 240.582031 C 406.71875 241.117188 405.875 241.566406 404.988281 241.933594 C 404.105469 242.300781 403.191406 242.574219 402.25 242.761719 C 401.3125 242.949219 400.363281 243.042969 399.402344 243.042969 C 398.445312 243.042969 397.496094 242.949219 396.554688 242.761719 C 395.617188 242.574219 394.703125 242.300781 393.816406 241.933594 C 392.933594 241.566406 392.089844 241.117188 391.292969 240.582031 C 390.496094 240.050781 389.761719 239.445312 389.082031 238.769531 C 388.40625 238.089844 387.800781 237.351562 387.265625 236.554688 C 386.734375 235.757812 386.285156 234.917969 385.917969 234.03125 C 385.550781 233.148438 385.273438 232.234375 385.085938 231.292969 C 384.898438 230.355469 384.808594 229.40625 384.808594 228.445312 C 384.808594 227.488281 384.898438 226.539062 385.085938 225.597656 C 385.273438 224.660156 385.550781 223.746094 385.917969 222.859375 C 386.285156 221.976562 386.734375 221.132812 387.265625 220.335938 C 387.800781 219.539062 388.40625 218.800781 389.082031 218.125 C 389.761719 217.445312 390.496094 216.839844 391.292969 216.308594 C 392.089844 215.777344 392.933594 215.328125 393.816406 214.960938 C 394.703125 214.59375 395.617188 214.316406 396.554688 214.128906 C 397.496094 213.941406 398.445312 213.847656 399.402344 213.847656 C 400.363281 213.847656 401.3125 213.941406 402.25 214.128906 C 403.191406 214.316406 404.105469 214.59375 404.988281 214.960938 C 405.875 215.328125 406.71875 215.777344 407.515625 216.308594 C 408.3125 216.839844 409.046875 217.445312 409.726562 218.125 C 410.402344 218.800781 411.007812 219.539062 411.542969 220.335938 C 412.074219 221.132812 412.523438 221.976562 412.890625 222.859375 C 413.257812 223.746094 413.535156 224.660156 413.722656 225.597656 C 413.90625 226.539062 414 227.488281 414 228.445312 Z M 414 228.445312 " fill-opacity="1" fill-rule="nonzero"/></g><g clip-path="url(#03c1cfceab)"><path fill="#000000" d="M 390.75 231.15625 L 390.75 153.140625 C 390.75 151.910156 391.539062 150.816406 392.710938 150.425781 L 404.191406 146.613281 C 406.046875 145.996094 407.96875 147.375 407.96875 149.328125 L 407.96875 231.15625 C 407.96875 232.734375 406.683594 234.015625 405.097656 234.015625 L 393.621094 234.015625 C 392.035156 234.015625 390.75 232.734375 390.75 231.15625 Z M 390.75 231.15625 " fill-opacity="1" fill-rule="nonzero"/></g><g clip-path="url(#2efce534eb)"><path stroke-linecap="butt" transform="matrix(1.239327, 0, 0, 1.239826, 280.749213, 326.191839)" fill="none" stroke-linejoin="miter" d="M 36.922124 57.101923 C 36.922124 59.893393 39.185196 62.155555 41.974637 62.155555 C 44.764079 62.155555 47.027151 59.893393 47.027151 57.101923 C 47.027151 54.313603 44.764079 52.05144 41.974637 52.05144 C 39.185196 52.05144 36.922124 54.313603 36.922124 57.101923 Z M 36.922124 57.101923 L 22.543105 57.101923 L 8.939456 43.500593 L 0.000635354 43.500593 " stroke="#000000" stroke-width="3" stroke-opacity="1" stroke-miterlimit="4"/></g><g clip-path="url(#489afa4dc4)"><path stroke-linecap="butt" transform="matrix(1.239327, 0, 0, 1.239826, 280.749213, 326.191839)" fill="none" stroke-linejoin="miter" d="M 33.035817 43.629769 C 33.035817 46.206996 35.125534 48.295873 37.700646 48.295873 C 40.275757 48.295873 42.362322 46.206996 42.362322 43.629769 C 42.362322 41.055693 40.275757 38.966816 37.700646 38.966816 C 35.125534 38.966816 33.035817 41.055693 33.035817 43.629769 Z M 33.035817 43.629769 L 24.096997 31.972386 L 0.000635354 31.972386 " stroke="#000000" stroke-width="3" stroke-opacity="1" stroke-miterlimit="4"/></g><g clip-path="url(#7559f0fc49)"><path stroke-linecap="butt" transform="matrix(1.239327, 0, 0, 1.239826, 280.749213, 326.191839)" fill="none" stroke-linejoin="miter" d="M 56.126719 31.383216 C 56.126719 33.834417 58.112423 35.822473 60.56461 35.822473 C 63.013645 35.822473 65.002501 33.834417 65.002501 31.383216 C 65.002501 28.932015 63.013645 26.947109 60.56461 26.947109 C 58.112423 26.947109 56.126719 28.932015 56.126719 31.383216 Z M 56.126719 31.383216 L 0.000635354 31.348559 " stroke="#000000" stroke-width="3" stroke-opacity="1" stroke-miterlimit="4"/></g><g clip-path="url(#965dd1ae2c)"><path stroke-linecap="butt" transform="matrix(1.239327, 0, 0, 1.239826, 280.749213, 326.191839)" fill="none" stroke-linejoin="miter" d="M 32.235232 21.789505 C 33.464477 24.054818 36.294893 24.892889 38.557966 23.664138 C 40.821038 22.435387 41.659446 19.602958 40.433353 17.340796 C 39.204107 15.075483 36.370539 14.237411 34.107467 15.466163 C 31.844395 16.694914 31.005986 19.527343 32.235232 21.789505 Z M 32.235232 21.789505 L 19.621283 31.225684 " stroke="#000000" stroke-width="3" stroke-opacity="1" stroke-miterlimit="4"/></g><g clip-path="url(#e33b11b6fa)"><path stroke-linecap="butt" transform="matrix(1.239327, 0, 0, 1.239826, 280.749213, 326.191839)" fill="none" stroke-linejoin="miter" d="M 44.827117 6.096147 C 44.827117 8.635566 46.885315 10.696088 49.425755 10.696088 C 51.963044 10.696088 54.024394 8.635566 54.024394 6.096147 C 54.024394 3.559879 51.963044 1.499358 49.425755 1.499358 C 46.885315 1.499358 44.827117 3.559879 44.827117 6.096147 Z M 44.827117 6.096147 L 31.034353 6.096147 L 17.626123 19.508439 L 0.000635354 19.508439 " stroke="#000000" stroke-width="3" stroke-opacity="1" stroke-miterlimit="4"/></g><g transform="matrix(1, 0, 0, 1, 447, 133)"><g clip-path="url(#978f6f67e0)"><g transform="matrix(1, 0, 0, 1, 90, 2)"><g clip-path="url(#abda0b69bf)"><g fill="#000000" fill-opacity="1"><g transform="translate(0.689443, 208.650808)"><g><path d="M 36.578125 5.046875 C 30.359375 5.046875 25.0625 2.816406 20.6875 -1.640625 C 16.3125 -6.097656 14.125 -11.4375 14.125 -17.65625 C 14.125 -23.882812 16.3125 -29.140625 20.6875 -33.421875 C 25.0625 -37.710938 30.359375 -39.859375 36.578125 -39.859375 C 42.796875 -39.859375 48.09375 -37.710938 52.46875 -33.421875 C 56.84375 -29.140625 59.03125 -23.882812 59.03125 -17.65625 C 59.03125 -11.4375 56.84375 -6.097656 52.46875 -1.640625 C 48.09375 2.816406 42.796875 5.046875 36.578125 5.046875 Z M 36.578125 5.046875 "/></g></g></g><g fill="#000000" fill-opacity="1"><g transform="translate(60.222845, 208.650808)"><g><path d="M 50.703125 -190.203125 L 50.703125 0 L 13.625 0 L 13.625 -190.203125 Z M 50.703125 -190.203125 "/></g></g></g><g fill="#000000" fill-opacity="1"><g transform="translate(110.927057, 208.650808)"><g><path d="M 36.578125 5.046875 C 30.359375 5.046875 25.0625 2.816406 20.6875 -1.640625 C 16.3125 -6.097656 14.125 -11.4375 14.125 -17.65625 C 14.125 -23.882812 16.3125 -29.140625 20.6875 -33.421875 C 25.0625 -37.710938 30.359375 -39.859375 36.578125 -39.859375 C 42.796875 -39.859375 48.09375 -37.710938 52.46875 -33.421875 C 56.84375 -29.140625 59.03125 -23.882812 59.03125 -17.65625 C 59.03125 -11.4375 56.84375 -6.097656 52.46875 -1.640625 C 48.09375 2.816406 42.796875 5.046875 36.578125 5.046875 Z M 36.578125 5.046875 "/></g></g></g><g clip-path="url(#8f021cdfb1)"><g fill="#000000" fill-opacity="1"><g transform="translate(170.460459, 208.650808)"><g><path d="M 65.34375 -190.203125 C 86.695312 -190.203125 102.796875 -185.28125 113.640625 -175.4375 C 124.492188 -165.601562 129.921875 -150.847656 129.921875 -131.171875 C 129.921875 -110.992188 124.617188 -95.941406 114.015625 -86.015625 C 103.421875 -76.097656 88.875 -71.140625 70.375 -71.140625 L 50.703125 -71.140625 L 50.703125 0 L 13.625 0 L 13.625 -190.203125 Z M 50.703125 -101.921875 L 58.78125 -101.921875 C 70.382812 -101.921875 78.832031 -103.894531 84.125 -107.84375 C 89.425781 -111.789062 92.078125 -119.65625 92.078125 -131.4375 C 92.078125 -141.863281 89.507812 -149.132812 84.375 -153.25 C 79.25 -157.375 70.882812 -159.4375 59.28125 -159.4375 L 50.703125 -159.4375 Z M 50.703125 -101.921875 "/></g></g></g></g></g></g><g clip-path="url(#f25509cd73)"><g transform="matrix(1, 0, 0, 1, 331, 0.000000000000085265)"><g clip-path="url(#8df05e79e3)"><g fill="#000000" fill-opacity="1"><g transform="translate(0.861012, 209.212625)"><g><path d="M 36.578125 5.046875 C 30.359375 5.046875 25.0625 2.816406 20.6875 -1.640625 C 16.3125 -6.097656 14.125 -11.4375 14.125 -17.65625 C 14.125 -23.875 16.3125 -29.128906 20.6875 -33.421875 C 25.0625 -37.710938 30.359375 -39.859375 36.578125 -39.859375 C 42.796875 -39.859375 48.09375 -37.710938 52.46875 -33.421875 C 56.84375 -29.128906 59.03125 -23.875 59.03125 -17.65625 C 59.03125 -11.4375 56.84375 -6.097656 52.46875 -1.640625 C 48.09375 2.816406 42.796875 5.046875 36.578125 5.046875 Z M 36.578125 5.046875 "/></g></g></g></g></g></g><g clip-path="url(#d06565b1a1)"><g transform="matrix(1, 0, 0, 1, 402, 2)"><g clip-path="url(#d3ae672c98)"><g fill="#000000" fill-opacity="1"><g transform="translate(1.677758, 208.650808)"><g><path d="M 43.140625 -118.5625 L 43.140625 0 L 22.953125 0 L 22.953125 -118.5625 Z M 18.671875 -163.71875 C 18.671875 -167.414062 20.140625 -170.648438 23.078125 -173.421875 C 26.023438 -176.203125 29.347656 -177.59375 33.046875 -177.59375 C 36.910156 -177.59375 40.269531 -176.203125 43.125 -173.421875 C 45.988281 -170.648438 47.421875 -167.414062 47.421875 -163.71875 C 47.421875 -159.34375 45.988281 -155.769531 43.125 -153 C 40.269531 -150.226562 36.910156 -148.84375 33.046875 -148.84375 C 29.179688 -148.84375 25.816406 -150.1875 22.953125 -152.875 C 20.097656 -155.5625 18.671875 -159.175781 18.671875 -163.71875 Z M 18.671875 -163.71875 "/></g></g></g><g fill="#000000" fill-opacity="1"><g transform="translate(67.7703, 208.650808)"><g><path d="M 107.21875 -101.65625 L 107.21875 -118.5625 L 127.390625 -118.5625 L 127.390625 0 L 107.21875 0 L 107.21875 -16.390625 L 106.703125 -16.390625 C 96.273438 -3.273438 82.65625 3.28125 65.84375 3.28125 C 49.363281 3.28125 35.78125 -2.769531 25.09375 -14.875 C 14.414062 -26.988281 9.078125 -41.707031 9.078125 -59.03125 C 9.078125 -77.195312 14.457031 -92.207031 25.21875 -104.0625 C 35.988281 -115.914062 49.613281 -121.84375 66.09375 -121.84375 C 74.332031 -121.84375 81.941406 -120.078125 88.921875 -116.546875 C 95.898438 -113.015625 101.828125 -108.050781 106.703125 -101.65625 Z M 68.359375 -103.171875 C 57.597656 -103.171875 48.472656 -99.050781 40.984375 -90.8125 C 33.503906 -82.570312 29.765625 -72.484375 29.765625 -60.546875 C 29.765625 -47.765625 33.421875 -37.039062 40.734375 -28.375 C 48.054688 -19.71875 57.347656 -15.390625 68.609375 -15.390625 C 80.554688 -15.390625 90.144531 -19.507812 97.375 -27.75 C 104.601562 -35.988281 108.21875 -46.835938 108.21875 -60.296875 C 108.21875 -72.566406 104.515625 -82.78125 97.109375 -90.9375 C 89.710938 -99.09375 80.128906 -103.171875 68.359375 -103.171875 Z M 68.359375 -103.171875 "/></g></g></g><g fill="#000000" fill-opacity="1"><g transform="translate(213.325216, 208.650808)"><g><path d="M 114.03125 0 L 93.84375 0 L 93.84375 -69.125 C 93.84375 -81.0625 92.035156 -89.71875 88.421875 -95.09375 C 84.804688 -100.476562 78.289062 -103.171875 68.875 -103.171875 C 58.101562 -103.171875 50.488281 -99.472656 46.03125 -92.078125 C 41.582031 -84.679688 39.359375 -73.410156 39.359375 -58.265625 L 39.359375 0 L 19.171875 0 L 19.171875 -118.5625 L 39.359375 -118.5625 L 39.359375 -104.1875 L 39.859375 -104.1875 C 44.066406 -109.90625 48.898438 -114.273438 54.359375 -117.296875 C 59.828125 -120.328125 66.257812 -121.84375 73.65625 -121.84375 C 86.945312 -121.84375 97 -117.765625 103.8125 -109.609375 C 110.625 -101.453125 114.03125 -88.796875 114.03125 -71.640625 Z M 114.03125 0 "/></g></g></g><g fill="#000000" fill-opacity="1"><g transform="translate(346.519324, 208.650808)"><g><path d="M 67.109375 -91.0625 C 65.253906 -94.9375 62.894531 -97.921875 60.03125 -100.015625 C 57.175781 -102.117188 54.148438 -103.171875 50.953125 -103.171875 C 47.253906 -103.171875 43.890625 -101.867188 40.859375 -99.265625 C 37.835938 -96.660156 36.328125 -93.59375 36.328125 -90.0625 C 36.328125 -83.164062 42.925781 -77.320312 56.125 -72.53125 C 69.332031 -67.738281 78.5 -62.484375 83.625 -56.765625 C 88.75 -51.046875 91.3125 -43.894531 91.3125 -35.3125 C 91.3125 -28.757812 89.796875 -22.625 86.765625 -16.90625 C 83.742188 -11.1875 79.078125 -6.390625 72.765625 -2.515625 C 66.460938 1.347656 59.273438 3.28125 51.203125 3.28125 C 41.453125 3.28125 32.875 0.675781 25.46875 -4.53125 C 18.070312 -9.75 12.691406 -17.148438 9.328125 -26.734375 L 27.25 -34.3125 C 30.269531 -27.25 33.671875 -22.328125 37.453125 -19.546875 C 41.242188 -16.773438 45.914062 -15.390625 51.46875 -15.390625 C 57.1875 -15.390625 61.8125 -17.113281 65.34375 -20.5625 C 68.875 -24.007812 70.640625 -28.335938 70.640625 -33.546875 C 70.640625 -37.921875 69.039062 -41.75 65.84375 -45.03125 C 62.644531 -48.3125 56.796875 -51.632812 48.296875 -55 C 39.804688 -58.363281 33.207031 -61.722656 28.5 -65.078125 C 21.101562 -70.460938 17.320312 -78.203125 17.15625 -88.296875 C 17.15625 -97.710938 20.515625 -105.65625 27.234375 -112.125 C 33.960938 -118.601562 42.375 -121.84375 52.46875 -121.84375 C 58.863281 -121.84375 65.003906 -119.820312 70.890625 -115.78125 C 76.773438 -111.75 81.144531 -106.453125 84 -99.890625 Z M 67.109375 -91.0625 "/></g></g></g></g></g></g><g clip-path="url(#5d776dc609)"><g transform="matrix(1, 0, 0, 1, 183, 216)"><g clip-path="url(#dee27ab2d4)"><g fill="#ffc20f" fill-opacity="1"><g transform="translate(0.753757, 101.251857)"><g><path d="M 44.09375 1.265625 C 36.570312 1.265625 29.769531 -0.367188 23.6875 -3.640625 C 17.601562 -6.910156 12.816406 -11.445312 9.328125 -17.25 C 5.847656 -23.050781 4.109375 -29.609375 4.109375 -36.921875 C 4.109375 -44.234375 5.847656 -50.789062 9.328125 -56.59375 C 12.816406 -62.394531 17.601562 -66.929688 23.6875 -70.203125 C 29.769531 -73.472656 36.609375 -75.109375 44.203125 -75.109375 C 50.609375 -75.109375 56.394531 -73.984375 61.5625 -71.734375 C 66.726562 -69.484375 71.070312 -66.25 74.59375 -62.03125 L 63.609375 -51.90625 C 58.617188 -57.675781 52.429688 -60.5625 45.046875 -60.5625 C 40.472656 -60.5625 36.394531 -59.554688 32.8125 -57.546875 C 29.226562 -55.546875 26.429688 -52.75 24.421875 -49.15625 C 22.421875 -45.570312 21.421875 -41.492188 21.421875 -36.921875 C 21.421875 -32.347656 22.421875 -28.269531 24.421875 -24.6875 C 26.429688 -21.101562 29.226562 -18.304688 32.8125 -16.296875 C 36.394531 -14.296875 40.472656 -13.296875 45.046875 -13.296875 C 52.429688 -13.296875 58.617188 -16.210938 63.609375 -22.046875 L 74.59375 -11.921875 C 71.070312 -7.628906 66.707031 -4.359375 61.5 -2.109375 C 56.300781 0.140625 50.5 1.265625 44.09375 1.265625 Z M 44.09375 1.265625 "/></g></g></g><g fill="#ffc20f" fill-opacity="1"><g transform="translate(78.086881, 101.251857)"><g><path d="M 34.609375 0.84375 C 28.628906 0.84375 23.265625 -0.398438 18.515625 -2.890625 C 13.765625 -5.390625 10.050781 -8.851562 7.375 -13.28125 C 4.707031 -17.71875 3.375 -22.75 3.375 -28.375 C 3.375 -34 4.707031 -39.023438 7.375 -43.453125 C 10.050781 -47.890625 13.765625 -51.359375 18.515625 -53.859375 C 23.265625 -56.359375 28.628906 -57.609375 34.609375 -57.609375 C 40.585938 -57.609375 45.929688 -56.359375 50.640625 -53.859375 C 55.347656 -51.359375 59.035156 -47.890625 61.703125 -43.453125 C 64.378906 -39.023438 65.71875 -34 65.71875 -28.375 C 65.71875 -22.75 64.378906 -17.71875 61.703125 -13.28125 C 59.035156 -8.851562 55.347656 -5.390625 50.640625 -2.890625 C 45.929688 -0.398438 40.585938 0.84375 34.609375 0.84375 Z M 34.609375 -12.65625 C 38.828125 -12.65625 42.289062 -14.078125 45 -16.921875 C 47.707031 -19.773438 49.0625 -23.59375 49.0625 -28.375 C 49.0625 -33.15625 47.707031 -36.96875 45 -39.8125 C 42.289062 -42.664062 38.828125 -44.09375 34.609375 -44.09375 C 30.390625 -44.09375 26.90625 -42.664062 24.15625 -39.8125 C 21.414062 -36.96875 20.046875 -33.15625 20.046875 -28.375 C 20.046875 -23.59375 21.414062 -19.773438 24.15625 -16.921875 C 26.90625 -14.078125 30.390625 -12.65625 34.609375 -12.65625 Z M 34.609375 -12.65625 "/></g></g></g><g fill="#ffc20f" fill-opacity="1"><g transform="translate(147.190829, 101.251857)"><g><path d="M 42.09375 -57.609375 C 49.125 -57.609375 54.800781 -55.492188 59.125 -51.265625 C 63.457031 -47.046875 65.625 -40.789062 65.625 -32.5 L 65.625 0 L 49.15625 0 L 49.15625 -29.96875 C 49.15625 -34.46875 48.171875 -37.820312 46.203125 -40.03125 C 44.234375 -42.25 41.382812 -43.359375 37.65625 -43.359375 C 33.507812 -43.359375 30.203125 -42.070312 27.734375 -39.5 C 25.273438 -36.9375 24.046875 -33.125 24.046875 -28.0625 L 24.046875 0 L 7.59375 0 L 7.59375 -56.765625 L 23.3125 -56.765625 L 23.3125 -50.109375 C 25.5 -52.503906 28.207031 -54.351562 31.4375 -55.65625 C 34.675781 -56.957031 38.226562 -57.609375 42.09375 -57.609375 Z M 42.09375 -57.609375 "/></g></g></g><g fill="#ffc20f" fill-opacity="1"><g transform="translate(220.092874, 101.251857)"><g><path d="M 42.09375 -57.609375 C 49.125 -57.609375 54.800781 -55.492188 59.125 -51.265625 C 63.457031 -47.046875 65.625 -40.789062 65.625 -32.5 L 65.625 0 L 49.15625 0 L 49.15625 -29.96875 C 49.15625 -34.46875 48.171875 -37.820312 46.203125 -40.03125 C 44.234375 -42.25 41.382812 -43.359375 37.65625 -43.359375 C 33.507812 -43.359375 30.203125 -42.070312 27.734375 -39.5 C 25.273438 -36.9375 24.046875 -33.125 24.046875 -28.0625 L 24.046875 0 L 7.59375 0 L 7.59375 -56.765625 L 23.3125 -56.765625 L 23.3125 -50.109375 C 25.5 -52.503906 28.207031 -54.351562 31.4375 -55.65625 C 34.675781 -56.957031 38.226562 -57.609375 42.09375 -57.609375 Z M 42.09375 -57.609375 "/></g></g></g><g fill="#ffc20f" fill-opacity="1"><g transform="translate(292.994897, 101.251857)"><g><path d="M 63.1875 -28.171875 C 63.1875 -27.960938 63.082031 -26.484375 62.875 -23.734375 L 19.9375 -23.734375 C 20.707031 -20.222656 22.535156 -17.445312 25.421875 -15.40625 C 28.304688 -13.363281 31.894531 -12.34375 36.1875 -12.34375 C 39.144531 -12.34375 41.765625 -12.78125 44.046875 -13.65625 C 46.328125 -14.539062 48.453125 -15.929688 50.421875 -17.828125 L 59.1875 -8.328125 C 53.84375 -2.210938 46.035156 0.84375 35.765625 0.84375 C 29.359375 0.84375 23.691406 -0.398438 18.765625 -2.890625 C 13.847656 -5.390625 10.050781 -8.851562 7.375 -13.28125 C 4.707031 -17.71875 3.375 -22.75 3.375 -28.375 C 3.375 -33.9375 4.691406 -38.945312 7.328125 -43.40625 C 9.960938 -47.875 13.582031 -51.359375 18.1875 -53.859375 C 22.800781 -56.359375 27.957031 -57.609375 33.65625 -57.609375 C 39.207031 -57.609375 44.234375 -56.410156 48.734375 -54.015625 C 53.242188 -51.617188 56.78125 -48.1875 59.34375 -43.71875 C 61.90625 -39.257812 63.1875 -34.078125 63.1875 -28.171875 Z M 33.765625 -45.15625 C 30.035156 -45.15625 26.90625 -44.097656 24.375 -41.984375 C 21.84375 -39.878906 20.296875 -37 19.734375 -33.34375 L 47.6875 -33.34375 C 47.125 -36.925781 45.578125 -39.789062 43.046875 -41.9375 C 40.515625 -44.082031 37.421875 -45.15625 33.765625 -45.15625 Z M 33.765625 -45.15625 "/></g></g></g><g fill="#ffc20f" fill-opacity="1"><g transform="translate(359.566799, 101.251857)"><g><path d="M 35.03125 0.84375 C 28.976562 0.84375 23.539062 -0.398438 18.71875 -2.890625 C 13.90625 -5.390625 10.144531 -8.851562 7.4375 -13.28125 C 4.726562 -17.71875 3.375 -22.75 3.375 -28.375 C 3.375 -34 4.726562 -39.023438 7.4375 -43.453125 C 10.144531 -47.890625 13.90625 -51.359375 18.71875 -53.859375 C 23.539062 -56.359375 28.976562 -57.609375 35.03125 -57.609375 C 41.007812 -57.609375 46.226562 -56.359375 50.6875 -53.859375 C 55.15625 -51.359375 58.410156 -47.789062 60.453125 -43.15625 L 47.6875 -36.296875 C 44.726562 -41.492188 40.472656 -44.09375 34.921875 -44.09375 C 30.628906 -44.09375 27.078125 -42.6875 24.265625 -39.875 C 21.453125 -37.0625 20.046875 -33.226562 20.046875 -28.375 C 20.046875 -23.519531 21.453125 -19.6875 24.265625 -16.875 C 27.078125 -14.0625 30.628906 -12.65625 34.921875 -12.65625 C 40.546875 -12.65625 44.800781 -15.257812 47.6875 -20.46875 L 60.453125 -13.5 C 58.410156 -9 55.15625 -5.484375 50.6875 -2.953125 C 46.226562 -0.421875 41.007812 0.84375 35.03125 0.84375 Z M 35.03125 0.84375 "/></g></g></g><g fill="#ffc20f" fill-opacity="1"><g transform="translate(421.918628, 101.251857)"><g><path d="M 44.203125 -2.75 C 42.585938 -1.550781 40.597656 -0.648438 38.234375 -0.046875 C 35.878906 0.546875 33.40625 0.84375 30.8125 0.84375 C 24.050781 0.84375 18.820312 -0.878906 15.125 -4.328125 C 11.4375 -7.773438 9.59375 -12.835938 9.59375 -19.515625 L 9.59375 -42.828125 L 0.84375 -42.828125 L 0.84375 -55.5 L 9.59375 -55.5 L 9.59375 -69.3125 L 26.0625 -69.3125 L 26.0625 -55.5 L 40.203125 -55.5 L 40.203125 -42.828125 L 26.0625 -42.828125 L 26.0625 -19.734375 C 26.0625 -17.335938 26.675781 -15.488281 27.90625 -14.1875 C 29.132812 -12.882812 30.875 -12.234375 33.125 -12.234375 C 35.726562 -12.234375 37.945312 -12.9375 39.78125 -14.34375 Z M 44.203125 -2.75 "/></g></g></g></g></g></g><g clip-path="url(#3306aa10aa)"><g transform="matrix(1, 0, 0, 1, 0.000000000000056843, 2)"><g clip-path="url(#c9d3a6d61d)"><g clip-path="url(#2703824f14)"><g fill="#000000" fill-opacity="1"><g transform="translate(0.34836, 208.650808)"><g><path d="M 113.765625 -190.203125 L 113.765625 -157.921875 L 75.421875 -157.921875 L 75.421875 0 L 38.34375 0 L 38.34375 -157.921875 L 0 -157.921875 L 0 -190.203125 Z M 113.765625 -190.203125 "/></g></g></g></g></g></g></g></g></g><g clip-path="url(#57716c597f)"><g transform="matrix(1, 0, 0, 1, 78, 324)"><g clip-path="url(#e421393256)"><g clip-path="url(#8161a6ec25)"><path stroke-linecap="butt" transform="matrix(-1.239327, 0, 0, 1.239826, 83.920525, 0.529126)" fill="none" stroke-linejoin="miter" d="M 36.923551 57.103985 C 36.923551 59.892305 39.183471 62.154467 41.976065 62.154467 C 44.765506 62.154467 47.028578 59.892305 47.028578 57.103985 C 47.028578 54.312514 44.765506 52.050352 41.976065 52.050352 C 39.183471 52.050352 36.923551 54.312514 36.923551 57.103985 Z M 36.923551 57.103985 L 22.54138 57.103985 L 8.940883 43.499504 L 0.00206271 43.499504 " stroke="#000000" stroke-width="3" stroke-opacity="1" stroke-miterlimit="4"/></g><g clip-path="url(#0d7a9bf471)"><path stroke-linecap="butt" transform="matrix(-1.239327, 0, 0, 1.239826, 83.920525, 0.529126)" fill="none" stroke-linejoin="miter" d="M 33.037244 43.631831 C 33.037244 46.205907 35.12381 48.294784 37.698921 48.294784 C 40.274033 48.294784 42.36375 46.205907 42.36375 43.631831 C 42.36375 41.054604 40.274033 38.968878 37.698921 38.968878 C 35.12381 38.968878 33.037244 41.054604 33.037244 43.631831 Z M 33.037244 43.631831 L 24.098424 31.971298 L 0.00206271 31.971298 " stroke="#000000" stroke-width="3" stroke-opacity="1" stroke-miterlimit="4"/></g><g clip-path="url(#7f3a7f9c0f)"><path stroke-linecap="butt" transform="matrix(-1.239327, 0, 0, 1.239826, 83.920525, 0.529126)" fill="none" stroke-linejoin="miter" d="M 56.124994 31.385278 C 56.124994 33.836479 58.11385 35.821385 60.562885 35.821385 C 63.015072 35.821385 65.000776 33.836479 65.000776 31.385278 C 65.000776 28.934077 63.015072 26.946021 60.562885 26.946021 C 58.11385 26.946021 56.124994 28.934077 56.124994 31.385278 Z M 56.124994 31.385278 L 0.00206271 31.34747 " stroke="#000000" stroke-width="3" stroke-opacity="1" stroke-miterlimit="4"/></g><g clip-path="url(#d3da9ecc29)"><path stroke-linecap="butt" transform="matrix(-1.239327, 0, 0, 1.239826, 83.920525, 0.529126)" fill="none" stroke-linejoin="miter" d="M 32.233507 21.791567 C 33.462752 24.053729 36.293169 24.891801 38.559393 23.66305 C 40.822465 22.434298 41.660874 19.60502 40.431628 17.339707 C 39.202383 15.077545 36.371966 14.239473 34.108894 15.468225 C 31.845822 16.696976 31.004262 19.526254 32.233507 21.791567 Z M 32.233507 21.791567 L 19.619558 31.224595 " stroke="#000000" stroke-width="3" stroke-opacity="1" stroke-miterlimit="4"/></g><g clip-path="url(#321f7a4688)"><path stroke-linecap="butt" transform="matrix(-1.239327, 0, 0, 1.239826, 83.920525, 0.529126)" fill="none" stroke-linejoin="miter" d="M 44.828544 6.098209 C 44.828544 8.637628 46.886742 10.694999 49.424031 10.694999 C 51.964471 10.694999 54.022669 8.637628 54.022669 6.098209 C 54.022669 3.55879 51.964471 1.50142 49.424031 1.50142 C 46.886742 1.50142 44.828544 3.55879 44.828544 6.098209 Z M 44.828544 6.098209 L 31.035781 6.098209 L 17.624398 19.50735 L 0.00206271 19.50735 " stroke="#000000" stroke-width="3" stroke-opacity="1" stroke-miterlimit="4"/></g></g></g></g><g clip-path="url(#c2857b21cb)"><path stroke-linecap="round" transform="matrix(1.316825, 0, 0, 1.31749, 22.09527, 265.988437)" fill="none" stroke-linejoin="miter" d="M 149.998583 75.374005 L 187.185561 112.56296 C 207.725018 133.100941 241.023025 133.100941 261.562482 112.56296 L 263.404626 110.718782 C 282.926603 91.197768 282.769383 59.393102 263.247406 39.872087 C 242.346046 18.969422 208.12845 20.83139 189.39554 43.699795 L 178.499898 57.000414 " stroke="#000000" stroke-width="25" stroke-opacity="1" stroke-miterlimit="4"/></g><g clip-path="url(#cd3b7428dd)"><path stroke-linecap="round" transform="matrix(1.316825, 0, 0, 1.31749, 22.09527, 265.988437)" fill="none" stroke-linejoin="miter" d="M 148.749722 74.374828 L 111.562745 37.188837 C 91.023288 16.650857 57.72528 16.650857 37.188789 37.188837 L 36.150544 38.226558 C 16.183605 58.189345 16.272598 90.649258 36.239537 110.612045 C 56.995542 131.372394 90.842336 130.334673 110.408809 108.45062 L 124.650567 92.523085 " stroke="#000000" stroke-width="25" stroke-opacity="1" stroke-miterlimit="4"/></g></svg>