<svg xmlns="http://www.w3.org/2000/svg" xmlns:xlink="http://www.w3.org/1999/xlink" width="1908" zoomAndPan="magnify" viewBox="0 0 1431 1404.749936" height="1873" preserveAspectRatio="xMidYMid meet" version="1.0"><defs><clipPath id="94e1bd886b"><path d="M 0.128906 0 L 1430.871094 0 L 1430.871094 1404.5 L 0.128906 1404.5 Z M 0.128906 0 " clip-rule="nonzero"/></clipPath><clipPath id="4aa3bcf5c1"><path d="M 255.335938 427.976562 L 1176.558594 427.976562 L 1176.558594 949 L 255.335938 949 Z M 255.335938 427.976562 " clip-rule="nonzero"/></clipPath><clipPath id="75434d2dec"><path d="M 0.128906 0 L 1430 0 L 1430 533.46875 L 0.128906 533.46875 Z M 0.128906 0 " clip-rule="nonzero"/></clipPath><clipPath id="c53f0c7139"><path d="M 1265.101562 628.117188 L 1359 628.117188 L 1359 796.058594 L 1265.101562 796.058594 Z M 1265.101562 628.117188 " clip-rule="nonzero"/></clipPath><clipPath id="a60bc316b6"><path d="M 1265.101562 580.261719 L 1361.421875 580.261719 L 1361.421875 676.585938 L 1265.101562 676.585938 Z M 1265.101562 580.261719 " clip-rule="nonzero"/></clipPath><clipPath id="0025f046b2"><path d="M 1284.710938 357.242188 L 1341.515625 357.242188 L 1341.515625 647 L 1284.710938 647 Z M 1284.710938 357.242188 " clip-rule="nonzero"/></clipPath><clipPath id="68512cfd59"><path d="M 921.691406 1059 L 1184 1059 L 1184 1212.710938 L 921.691406 1212.710938 Z M 921.691406 1059 " clip-rule="nonzero"/></clipPath><clipPath id="0ec381cfb2"><path d="M 921.691406 1012 L 1165 1012 L 1165 1212.710938 L 921.691406 1212.710938 Z M 921.691406 1012 " clip-rule="nonzero"/></clipPath><clipPath id="3f65cd0765"><path d="M 921.691406 991 L 1195.835938 991 L 1195.835938 1167 L 921.691406 1167 Z M 921.691406 991 " clip-rule="nonzero"/></clipPath><clipPath id="65cb03a632"><path d="M 932 950.914062 L 1159 950.914062 L 1159 1149 L 932 1149 Z M 932 950.914062 " clip-rule="nonzero"/></clipPath><clipPath id="0151b865fa"><path d="M 921.691406 950.914062 L 1195.835938 950.914062 L 1195.835938 1101 L 921.691406 1101 Z M 921.691406 950.914062 " clip-rule="nonzero"/></clipPath><clipPath id="c5167424af"><path d="M 255.449219 945.429688 L 529.59375 945.429688 L 529.59375 1207.226562 L 255.449219 1207.226562 Z M 255.449219 945.429688 " clip-rule="nonzero"/></clipPath><clipPath id="84833cff46"><path d="M 13 108 L 274.59375 108 L 274.59375 262.226562 L 13 262.226562 Z M 13 108 " clip-rule="nonzero"/></clipPath><clipPath id="d551079196"><path d="M 32 61 L 274.59375 61 L 274.59375 262.226562 L 32 262.226562 Z M 32 61 " clip-rule="nonzero"/></clipPath><clipPath id="5b7876f208"><path d="M 0.679688 41 L 274.59375 41 L 274.59375 217 L 0.679688 217 Z M 0.679688 41 " clip-rule="nonzero"/></clipPath><clipPath id="e5ade9bad1"><path d="M 37 0.429688 L 264 0.429688 L 264 198 L 37 198 Z M 37 0.429688 " clip-rule="nonzero"/></clipPath><clipPath id="fa980784a8"><path d="M 0.679688 0.429688 L 274.59375 0.429688 L 274.59375 150 L 0.679688 150 Z M 0.679688 0.429688 " clip-rule="nonzero"/></clipPath><clipPath id="8f0fff066e"><rect x="0" width="275" y="0" height="263"/></clipPath><clipPath id="25a9d3f0e3"><path d="M 105 752.285156 L 1362.535156 752.285156 L 1362.535156 1404.304688 L 105 1404.304688 Z M 105 752.285156 " clip-rule="nonzero"/></clipPath><clipPath id="a8aee84b85"><path d="M 68.375 752.285156 L 1330 752.285156 L 1330 1404.304688 L 68.375 1404.304688 Z M 68.375 752.285156 " clip-rule="nonzero"/></clipPath><clipPath id="b39e764c8e"><rect x="0" width="1431" y="0" height="1405"/></clipPath></defs><g clip-path="url(#94e1bd886b)"><g transform="matrix(1, 0, 0, 1, 0.000000000000000056, -0.000000000000008473)"><g clip-path="url(#b39e764c8e)"><g clip-path="url(#4aa3bcf5c1)"><path fill="#000000" d="M 255.457031 727.5625 L 255.457031 469.699219 C 255.457031 441.101562 283.582031 420.992188 310.628906 430.253906 L 704.472656 565.136719 C 713.261719 568.148438 722.800781 568.132812 731.574219 565.101562 L 1121.160156 430.464844 C 1148.226562 421.113281 1176.4375 441.222656 1176.4375 469.871094 L 1176.4375 733.585938 C 1176.4375 761.222656 1149.835938 781.957031 1122.441406 778.351562 C 1078.40625 772.554688 1013.535156 769.785156 951.402344 788.652344 C 882.242188 809.65625 813.082031 881.980469 772.097656 931.554688 C 753.300781 954.292969 716.199219 954.171875 697.394531 931.433594 C 652.867188 877.578125 573.21875 795.066406 484.660156 767.808594 C 428.042969 750.378906 360.816406 759.863281 313.863281 771.085938 C 285.316406 777.90625 255.457031 756.925781 255.457031 727.5625 Z M 255.457031 727.5625 " fill-opacity="1" fill-rule="nonzero"/></g><g clip-path="url(#75434d2dec)"><path fill="#000000" d="M 701.933594 2.117188 C 710.359375 -0.707031 719.476562 -0.707031 727.90625 2.117188 L 1401.703125 227.636719 C 1439.019531 240.125 1439.019531 292.988281 1401.703125 305.476562 L 727.90625 530.996094 C 719.476562 533.820312 710.359375 533.820312 701.933594 530.996094 L 28.136719 305.476562 C -9.179688 292.988281 -9.179688 240.125 28.136719 227.636719 Z M 701.933594 2.117188 " fill-opacity="1" fill-rule="nonzero"/></g><g clip-path="url(#c53f0c7139)"><path fill="#000000" d="M 1265.898438 764.378906 L 1296.605469 642.40625 C 1298.71875 634.003906 1306.25 628.117188 1314.882812 628.117188 C 1323.84375 628.117188 1331.570312 634.449219 1333.359375 643.265625 L 1358.164062 765.535156 C 1361.367188 781.304688 1349.363281 796.058594 1333.332031 796.058594 L 1290.464844 796.058594 C 1273.953125 796.058594 1261.847656 780.453125 1265.898438 764.378906 Z M 1265.898438 764.378906 " fill-opacity="1" fill-rule="nonzero"/></g><g clip-path="url(#a60bc316b6)"><path fill="#000000" d="M 1361.421875 628.421875 C 1361.421875 630 1361.34375 631.574219 1361.191406 633.144531 C 1361.035156 634.714844 1360.804688 636.273438 1360.496094 637.820312 C 1360.1875 639.367188 1359.804688 640.894531 1359.347656 642.402344 C 1358.890625 643.914062 1358.359375 645.398438 1357.757812 646.855469 C 1357.152344 648.3125 1356.480469 649.734375 1355.734375 651.125 C 1354.992188 652.515625 1354.183594 653.867188 1353.304688 655.179688 C 1352.429688 656.492188 1351.492188 657.757812 1350.492188 658.976562 C 1349.488281 660.195312 1348.433594 661.363281 1347.316406 662.476562 C 1346.203125 663.59375 1345.035156 664.652344 1343.816406 665.652344 C 1342.59375 666.652344 1341.328125 667.589844 1340.019531 668.46875 C 1338.707031 669.34375 1337.355469 670.152344 1335.964844 670.898438 C 1334.574219 671.640625 1333.148438 672.316406 1331.691406 672.917969 C 1330.234375 673.523438 1328.75 674.050781 1327.242188 674.511719 C 1325.734375 674.96875 1324.203125 675.351562 1322.65625 675.660156 C 1321.109375 675.964844 1319.550781 676.199219 1317.984375 676.351562 C 1316.414062 676.507812 1314.839844 676.585938 1313.261719 676.585938 C 1311.683594 676.585938 1310.109375 676.507812 1308.542969 676.351562 C 1306.972656 676.199219 1305.414062 675.964844 1303.867188 675.660156 C 1302.320312 675.351562 1300.792969 674.96875 1299.28125 674.511719 C 1297.773438 674.050781 1296.289062 673.523438 1294.832031 672.917969 C 1293.375 672.316406 1291.949219 671.640625 1290.558594 670.898438 C 1289.167969 670.152344 1287.816406 669.34375 1286.503906 668.46875 C 1285.195312 667.589844 1283.929688 666.652344 1282.710938 665.652344 C 1281.488281 664.652344 1280.324219 663.59375 1279.207031 662.476562 C 1278.09375 661.363281 1277.035156 660.195312 1276.035156 658.976562 C 1275.03125 657.757812 1274.09375 656.492188 1273.21875 655.179688 C 1272.339844 653.867188 1271.53125 652.515625 1270.789062 651.125 C 1270.042969 649.734375 1269.371094 648.3125 1268.765625 646.855469 C 1268.164062 645.398438 1267.632812 643.914062 1267.175781 642.402344 C 1266.71875 640.894531 1266.335938 639.367188 1266.027344 637.820312 C 1265.71875 636.273438 1265.488281 634.714844 1265.332031 633.144531 C 1265.179688 631.574219 1265.101562 630 1265.101562 628.421875 C 1265.101562 626.847656 1265.179688 625.273438 1265.332031 623.703125 C 1265.488281 622.132812 1265.71875 620.574219 1266.027344 619.027344 C 1266.335938 617.480469 1266.71875 615.953125 1267.175781 614.445312 C 1267.632812 612.933594 1268.164062 611.449219 1268.765625 609.992188 C 1269.371094 608.535156 1270.042969 607.113281 1270.789062 605.722656 C 1271.53125 604.328125 1272.339844 602.980469 1273.21875 601.667969 C 1274.09375 600.355469 1275.03125 599.089844 1276.035156 597.871094 C 1277.035156 596.652344 1278.09375 595.484375 1279.207031 594.367188 C 1280.324219 593.253906 1281.488281 592.195312 1282.710938 591.195312 C 1283.929688 590.195312 1285.195312 589.257812 1286.503906 588.378906 C 1287.816406 587.503906 1289.167969 586.695312 1290.558594 585.949219 C 1291.949219 585.207031 1293.375 584.53125 1294.832031 583.929688 C 1296.289062 583.324219 1297.773438 582.792969 1299.28125 582.335938 C 1300.792969 581.878906 1302.320312 581.496094 1303.867188 581.1875 C 1305.414062 580.878906 1306.972656 580.648438 1308.542969 580.496094 C 1310.109375 580.339844 1311.683594 580.261719 1313.261719 580.261719 C 1314.839844 580.261719 1316.414062 580.339844 1317.984375 580.496094 C 1319.550781 580.648438 1321.109375 580.878906 1322.65625 581.1875 C 1324.203125 581.496094 1325.734375 581.878906 1327.242188 582.335938 C 1328.75 582.792969 1330.234375 583.324219 1331.691406 583.929688 C 1333.148438 584.53125 1334.574219 585.207031 1335.964844 585.949219 C 1337.355469 586.695312 1338.707031 587.503906 1340.019531 588.378906 C 1341.328125 589.257812 1342.59375 590.195312 1343.816406 591.195312 C 1345.035156 592.195312 1346.203125 593.253906 1347.316406 594.367188 C 1348.433594 595.484375 1349.488281 596.652344 1350.492188 597.871094 C 1351.492188 599.089844 1352.429688 600.355469 1353.304688 601.667969 C 1354.183594 602.980469 1354.992188 604.328125 1355.734375 605.722656 C 1356.480469 607.113281 1357.152344 608.535156 1357.757812 609.992188 C 1358.359375 611.449219 1358.890625 612.933594 1359.347656 614.445312 C 1359.804688 615.953125 1360.1875 617.480469 1360.496094 619.027344 C 1360.804688 620.574219 1361.035156 622.132812 1361.191406 623.703125 C 1361.34375 625.273438 1361.421875 626.847656 1361.421875 628.421875 Z M 1361.421875 628.421875 " fill-opacity="1" fill-rule="nonzero"/></g><g clip-path="url(#0025f046b2)"><path fill="#000000" d="M 1284.710938 637.359375 L 1284.710938 379.964844 C 1284.710938 375.902344 1287.316406 372.296875 1291.183594 371.015625 L 1329.050781 358.433594 C 1335.183594 356.398438 1341.515625 360.945312 1341.515625 367.382812 L 1341.515625 637.359375 C 1341.515625 642.574219 1337.277344 646.796875 1332.046875 646.796875 L 1294.175781 646.796875 C 1288.949219 646.796875 1284.710938 642.574219 1284.710938 637.359375 Z M 1284.710938 637.359375 " fill-opacity="1" fill-rule="nonzero"/></g><g clip-path="url(#68512cfd59)"><path stroke-linecap="butt" transform="matrix(4.088914, 0, 0, 4.090558, 921.783776, 950.915625)" fill="none" stroke-linejoin="miter" d="M 36.922774 57.102343 C 36.922774 59.892687 39.184988 62.154947 41.974543 62.154947 C 44.765054 62.154947 47.027268 59.892687 47.027268 57.102343 C 47.027268 54.312 44.765054 52.050695 41.974543 52.050695 C 39.184988 52.050695 36.922774 54.312 36.922774 57.102343 Z M 36.922774 57.102343 L 22.542235 57.102343 L 8.940288 43.500136 L 0.0012928 43.500136 " stroke="#000000" stroke-width="3" stroke-opacity="1" stroke-miterlimit="4"/></g><g clip-path="url(#0ec381cfb2)"><path stroke-linecap="butt" transform="matrix(4.088914, 0, 0, 4.090558, 921.783776, 950.915625)" fill="none" stroke-linejoin="miter" d="M 33.036503 43.630963 C 33.036503 46.206444 35.123893 48.294904 37.699455 48.294904 C 40.275972 48.294904 42.363362 46.206444 42.363362 43.630963 C 42.363362 41.055482 40.275972 38.967021 37.699455 38.967021 C 35.123893 38.967021 33.036503 41.055482 33.036503 43.630963 Z M 33.036503 43.630963 L 24.097508 31.972064 L 0.0012928 31.972064 " stroke="#000000" stroke-width="3" stroke-opacity="1" stroke-miterlimit="4"/></g><g clip-path="url(#3f65cd0765)"><path stroke-linecap="butt" transform="matrix(4.088914, 0, 0, 4.090558, 921.783776, 950.915625)" fill="none" stroke-linejoin="miter" d="M 56.125804 31.384774 C 56.125804 33.835158 58.111929 35.822394 60.563298 35.822394 C 63.013712 35.822394 65.000792 33.835158 65.000792 31.384774 C 65.000792 28.933435 63.013712 26.946199 60.563298 26.946199 C 58.111929 26.946199 56.125804 28.933435 56.125804 31.384774 Z M 56.125804 31.384774 L 0.0012928 31.346576 " stroke="#000000" stroke-width="3" stroke-opacity="1" stroke-miterlimit="4"/></g><g clip-path="url(#65cb03a632)"><path stroke-linecap="butt" transform="matrix(4.088914, 0, 0, 4.090558, 921.783776, 950.915625)" fill="none" stroke-linejoin="miter" d="M 32.234029 21.790462 C 33.462579 24.054632 36.294169 24.893072 38.558294 23.66406 C 40.821464 22.436003 41.660241 19.604597 40.43169 17.340428 C 39.20314 15.077213 36.37155 14.237818 34.10838 15.466829 C 31.844255 16.695841 31.005478 19.527247 32.234029 21.790462 Z M 32.234029 21.790462 L 19.620845 31.225299 " stroke="#000000" stroke-width="3" stroke-opacity="1" stroke-miterlimit="4"/></g><g clip-path="url(#0151b865fa)"><path stroke-linecap="butt" transform="matrix(4.088914, 0, 0, 4.090558, 921.783776, 950.915625)" fill="none" stroke-linejoin="miter" d="M 44.828105 6.097884 C 44.828105 8.637077 46.88588 10.694979 49.425139 10.694979 C 51.964399 10.694979 54.023129 8.637077 54.023129 6.097884 C 54.023129 3.558691 51.964399 1.499833 49.425139 1.499833 C 46.88588 1.499833 44.828105 3.558691 44.828105 6.097884 Z M 44.828105 6.097884 L 31.035093 6.097884 L 17.625167 19.507193 L 0.0012928 19.507193 " stroke="#000000" stroke-width="3" stroke-opacity="1" stroke-miterlimit="4"/></g><g clip-path="url(#c5167424af)"><g transform="matrix(1, 0, 0, 1, 255, 945)"><g clip-path="url(#8f0fff066e)"><g clip-path="url(#84833cff46)"><path stroke-linecap="butt" transform="matrix(-4.088914, 0, 0, 4.090558, 274.732206, 0.429825)" fill="none" stroke-linejoin="miter" d="M 36.922861 57.102692 C 36.922861 59.893035 39.185076 62.155295 41.974631 62.155295 C 44.765141 62.155295 47.027356 59.893035 47.027356 57.102692 C 47.027356 54.312348 44.765141 52.050088 41.974631 52.050088 C 39.185076 52.050088 36.922861 54.312348 36.922861 57.102692 Z M 36.922861 57.102692 L 22.542323 57.102692 L 8.940376 43.499529 L 0.00138026 43.499529 " stroke="#000000" stroke-width="3" stroke-opacity="1" stroke-miterlimit="4"/></g><g clip-path="url(#d551079196)"><path stroke-linecap="butt" transform="matrix(-4.088914, 0, 0, 4.090558, 274.732206, 0.429825)" fill="none" stroke-linejoin="miter" d="M 33.035635 43.631311 C 33.035635 46.206792 35.12398 48.295253 37.699542 48.295253 C 40.276059 48.295253 42.363449 46.206792 42.363449 43.631311 C 42.363449 41.05583 40.276059 38.96737 37.699542 38.96737 C 35.12398 38.96737 33.035635 41.05583 33.035635 43.631311 Z M 33.035635 43.631311 L 24.097595 31.971457 L 0.00138026 31.971457 " stroke="#000000" stroke-width="3" stroke-opacity="1" stroke-miterlimit="4"/></g><g clip-path="url(#5b7876f208)"><path stroke-linecap="butt" transform="matrix(-4.088914, 0, 0, 4.090558, 274.732206, 0.429825)" fill="none" stroke-linejoin="miter" d="M 56.124936 31.384167 C 56.124936 33.835506 58.112016 35.821787 60.563385 35.821787 C 63.013799 35.821787 65.00088 33.835506 65.00088 31.384167 C 65.00088 28.932829 63.013799 26.946547 60.563385 26.946547 C 58.112016 26.946547 56.124936 28.932829 56.124936 31.384167 Z M 56.124936 31.384167 L 0.00138026 31.346925 " stroke="#000000" stroke-width="3" stroke-opacity="1" stroke-miterlimit="4"/></g><g clip-path="url(#e5ade9bad1)"><path stroke-linecap="butt" transform="matrix(-4.088914, 0, 0, 4.090558, 274.732206, 0.429825)" fill="none" stroke-linejoin="miter" d="M 32.234116 21.79081 C 33.462667 24.054025 36.294256 24.89342 38.558381 23.664408 C 40.821551 22.435397 41.660328 19.603991 40.431778 17.340776 C 39.203227 15.076606 36.371638 14.238166 34.108468 15.467178 C 31.844343 16.695234 31.005565 19.52664 32.234116 21.79081 Z M 32.234116 21.79081 L 19.620933 31.225647 " stroke="#000000" stroke-width="3" stroke-opacity="1" stroke-miterlimit="4"/></g><g clip-path="url(#fa980784a8)"><path stroke-linecap="butt" transform="matrix(-4.088914, 0, 0, 4.090558, 274.732206, 0.429825)" fill="none" stroke-linejoin="miter" d="M 44.828193 6.097277 C 44.828193 8.636471 46.885967 10.695328 49.425227 10.695328 C 51.964486 10.695328 54.023216 8.636471 54.023216 6.097277 C 54.023216 3.558084 51.964486 1.500182 49.425227 1.500182 C 46.885967 1.500182 44.828193 3.558084 44.828193 6.097277 Z M 44.828193 6.097277 L 31.03518 6.097277 L 17.625254 19.507541 L 0.00138026 19.507541 " stroke="#000000" stroke-width="3" stroke-opacity="1" stroke-miterlimit="4"/></g></g></g></g><g clip-path="url(#25a9d3f0e3)"><path stroke-linecap="round" transform="matrix(4.344602, 0, 0, 4.346797, 68.406665, 752.28648)" fill="none" stroke-linejoin="miter" d="M 150.000156 75.373977 L 187.187105 112.561918 C 207.725343 133.099668 241.023667 133.099668 261.561904 112.561918 L 263.405967 110.717888 C 282.926418 91.198308 282.768176 59.392383 263.247724 39.872803 C 242.346249 18.971099 208.128141 20.832203 189.396204 43.699255 L 178.49996 56.999277 " stroke="#000000" stroke-width="25" stroke-opacity="1" stroke-miterlimit="4"/></g><g clip-path="url(#a8aee84b85)"><path stroke-linecap="round" transform="matrix(4.344602, 0, 0, 4.346797, 68.406665, 752.28648)" fill="none" stroke-linejoin="miter" d="M 148.750401 74.374678 L 111.561653 37.187636 C 91.024315 16.648987 57.725091 16.648987 37.187753 37.187636 L 36.149288 38.225577 C 16.184679 58.189989 16.27369 90.648334 36.238299 110.612746 C 56.995918 131.370666 90.841796 130.335421 110.409001 108.452391 L 124.651711 92.522019 " stroke="#000000" stroke-width="25" stroke-opacity="1" stroke-miterlimit="4"/></g></g></g></g></svg>