<svg xmlns="http://www.w3.org/2000/svg" xmlns:xlink="http://www.w3.org/1999/xlink" width="1908" zoomAndPan="magnify" viewBox="0 0 1431 1400.999941" height="1868" preserveAspectRatio="xMidYMid meet" version="1.0"><defs><clipPath id="1f6aac5544"><path d="M 255.246094 428.042969 L 1175.496094 428.042969 L 1175.496094 948 L 255.246094 948 Z M 255.246094 428.042969 " clip-rule="nonzero"/></clipPath><clipPath id="5a694b4608"><path d="M 1265.171875 628.210938 L 1359 628.210938 L 1359 796 L 1265.171875 796 Z M 1265.171875 628.210938 " clip-rule="nonzero"/></clipPath><clipPath id="2e17aaecb6"><path d="M 1265.171875 580.351562 L 1361 580.351562 L 1361 676.351562 L 1265.171875 676.351562 Z M 1265.171875 580.351562 " clip-rule="nonzero"/></clipPath><clipPath id="4bea12fda7"><path d="M 1284.78125 357.296875 L 1341.03125 357.296875 L 1341.03125 647 L 1284.78125 647 Z M 1284.78125 357.296875 " clip-rule="nonzero"/></clipPath><clipPath id="0dea2d4784"><path d="M 107 752.402344 L 1361.257812 752.402344 L 1361.257812 1401 L 107 1401 Z M 107 752.402344 " clip-rule="nonzero"/></clipPath><clipPath id="1a74f4f159"><path d="M 68.257812 752.402344 L 1332 752.402344 L 1332 1401 L 68.257812 1401 Z M 68.257812 752.402344 " clip-rule="nonzero"/></clipPath><clipPath id="c951e4d055"><path d="M 921.707031 1059 L 1184 1059 L 1184 1212.703125 L 921.707031 1212.703125 Z M 921.707031 1059 " clip-rule="nonzero"/></clipPath><clipPath id="21ecc949d2"><path d="M 921.707031 1012 L 1165 1012 L 1165 1212.703125 L 921.707031 1212.703125 Z M 921.707031 1012 " clip-rule="nonzero"/></clipPath><clipPath id="1d140fbe07"><path d="M 921.707031 991 L 1196.207031 991 L 1196.207031 1167 L 921.707031 1167 Z M 921.707031 991 " clip-rule="nonzero"/></clipPath><clipPath id="57a7a80926"><path d="M 932 950.953125 L 1160 950.953125 L 1160 1149 L 932 1149 Z M 932 950.953125 " clip-rule="nonzero"/></clipPath><clipPath id="e969544619"><path d="M 921.707031 950.953125 L 1196.207031 950.953125 L 1196.207031 1101 L 921.707031 1101 Z M 921.707031 950.953125 " clip-rule="nonzero"/></clipPath><clipPath id="c6dee28146"><path d="M 255.246094 945.578125 L 529.746094 945.578125 L 529.746094 1207.328125 L 255.246094 1207.328125 Z M 255.246094 945.578125 " clip-rule="nonzero"/></clipPath><clipPath id="34a538f32a"><path d="M 12 109 L 274.746094 109 L 274.746094 262.328125 L 12 262.328125 Z M 12 109 " clip-rule="nonzero"/></clipPath><clipPath id="55bf5de62f"><path d="M 31 61 L 274.746094 61 L 274.746094 262.328125 L 31 262.328125 Z M 31 61 " clip-rule="nonzero"/></clipPath><clipPath id="963f9d587f"><path d="M 0.292969 41 L 274.746094 41 L 274.746094 217 L 0.292969 217 Z M 0.292969 41 " clip-rule="nonzero"/></clipPath><clipPath id="f8a322f8c1"><path d="M 37 0.578125 L 264 0.578125 L 264 198 L 37 198 Z M 37 0.578125 " clip-rule="nonzero"/></clipPath><clipPath id="e2c477bdbc"><path d="M 0.292969 0.578125 L 274.746094 0.578125 L 274.746094 150 L 0.292969 150 Z M 0.292969 0.578125 " clip-rule="nonzero"/></clipPath><clipPath id="486e5c8723"><rect x="0" width="275" y="0" height="263"/></clipPath></defs><g clip-path="url(#1f6aac5544)"><path fill="#ffc20f" d="M 255.371094 727.238281 L 255.371094 469.710938 C 255.371094 441.148438 283.472656 421.070312 310.492188 430.320312 L 703.976562 565.023438 C 712.757812 568.03125 722.289062 568.019531 731.054688 564.988281 L 1120.285156 430.527344 C 1147.324219 421.1875 1175.511719 441.273438 1175.511719 469.882812 L 1175.511719 733.253906 C 1175.511719 760.855469 1148.933594 781.5625 1121.566406 777.960938 C 1077.570312 772.171875 1012.757812 769.40625 950.683594 788.25 C 881.585938 809.226562 812.488281 881.453125 771.542969 930.960938 C 752.761719 953.671875 715.691406 953.550781 696.90625 930.84375 C 652.417969 877.058594 572.84375 794.652344 484.367188 767.429688 C 427.800781 750.027344 360.632812 759.496094 313.726562 770.703125 C 285.203125 777.515625 255.371094 756.5625 255.371094 727.238281 Z M 255.371094 727.238281 " fill-opacity="1" fill-rule="nonzero"/></g><path fill="#ffc20f" d="M 702.238281 2.113281 C 710.671875 -0.703125 719.796875 -0.703125 728.230469 2.113281 L 1402.464844 227.429688 C 1439.800781 239.910156 1439.800781 292.722656 1402.464844 305.203125 L 728.230469 530.519531 C 719.796875 533.339844 710.671875 533.339844 702.238281 530.519531 L 28.007812 305.203125 C -9.332031 292.722656 -9.332031 239.910156 28.007812 227.433594 Z M 702.238281 2.113281 " fill-opacity="1" fill-rule="nonzero"/><g clip-path="url(#5a694b4608)"><path fill="#ffc20f" d="M 1265.957031 764.242188 L 1296.738281 642.484375 C 1298.859375 634.09375 1306.40625 628.214844 1315.058594 628.214844 C 1324.042969 628.214844 1331.785156 634.539062 1333.578125 643.34375 L 1358.441406 765.398438 C 1361.648438 781.140625 1349.617188 795.871094 1333.550781 795.871094 L 1290.585938 795.871094 C 1274.03125 795.871094 1261.902344 780.289062 1265.957031 764.242188 Z M 1265.957031 764.242188 " fill-opacity="1" fill-rule="nonzero"/></g><g clip-path="url(#2e17aaecb6)"><path fill="#ffc20f" d="M 1360.890625 628.210938 C 1360.890625 629.78125 1360.8125 631.34375 1360.660156 632.902344 C 1360.503906 634.464844 1360.273438 636.011719 1359.96875 637.550781 C 1359.664062 639.085938 1359.28125 640.605469 1358.828125 642.105469 C 1358.371094 643.605469 1357.84375 645.078125 1357.246094 646.527344 C 1356.644531 647.976562 1355.976562 649.390625 1355.238281 650.773438 C 1354.5 652.15625 1353.695312 653.5 1352.824219 654.800781 C 1351.953125 656.105469 1351.019531 657.363281 1350.023438 658.574219 C 1349.03125 659.785156 1347.980469 660.945312 1346.871094 662.054688 C 1345.761719 663.164062 1344.601562 664.214844 1343.390625 665.207031 C 1342.179688 666.203125 1340.921875 667.136719 1339.617188 668.007812 C 1338.316406 668.875 1336.972656 669.683594 1335.589844 670.421875 C 1334.207031 671.160156 1332.792969 671.828125 1331.34375 672.429688 C 1329.894531 673.027344 1328.421875 673.554688 1326.921875 674.011719 C 1325.421875 674.464844 1323.902344 674.847656 1322.367188 675.152344 C 1320.828125 675.457031 1319.28125 675.6875 1317.71875 675.839844 C 1316.160156 675.996094 1314.597656 676.070312 1313.03125 676.070312 C 1311.460938 676.070312 1309.898438 675.996094 1308.339844 675.839844 C 1306.777344 675.6875 1305.230469 675.457031 1303.691406 675.152344 C 1302.15625 674.847656 1300.636719 674.464844 1299.136719 674.011719 C 1297.636719 673.554688 1296.164062 673.027344 1294.714844 672.429688 C 1293.265625 671.828125 1291.851562 671.160156 1290.46875 670.421875 C 1289.085938 669.683594 1287.742188 668.875 1286.441406 668.007812 C 1285.136719 667.136719 1283.878906 666.203125 1282.667969 665.207031 C 1281.457031 664.214844 1280.296875 663.164062 1279.1875 662.054688 C 1278.078125 660.945312 1277.027344 659.785156 1276.035156 658.574219 C 1275.039062 657.363281 1274.105469 656.105469 1273.234375 654.800781 C 1272.363281 653.5 1271.558594 652.15625 1270.820312 650.773438 C 1270.082031 649.390625 1269.414062 647.976562 1268.8125 646.527344 C 1268.214844 645.078125 1267.6875 643.605469 1267.230469 642.105469 C 1266.777344 640.605469 1266.394531 639.085938 1266.089844 637.550781 C 1265.785156 636.011719 1265.554688 634.464844 1265.402344 632.902344 C 1265.246094 631.34375 1265.171875 629.78125 1265.171875 628.210938 C 1265.171875 626.644531 1265.246094 625.082031 1265.402344 623.519531 C 1265.554688 621.960938 1265.785156 620.414062 1266.089844 618.875 C 1266.394531 617.339844 1266.777344 615.820312 1267.230469 614.320312 C 1267.6875 612.820312 1268.214844 611.34375 1268.8125 609.898438 C 1269.414062 608.449219 1270.082031 607.035156 1270.820312 605.652344 C 1271.558594 604.269531 1272.363281 602.925781 1273.234375 601.625 C 1274.105469 600.320312 1275.039062 599.0625 1276.035156 597.851562 C 1277.027344 596.640625 1278.078125 595.480469 1279.1875 594.371094 C 1280.296875 593.261719 1281.457031 592.210938 1282.667969 591.214844 C 1283.878906 590.222656 1285.136719 589.289062 1286.441406 588.417969 C 1287.742188 587.546875 1289.085938 586.742188 1290.46875 586.003906 C 1291.851562 585.265625 1293.265625 584.597656 1294.714844 583.996094 C 1296.164062 583.394531 1297.636719 582.867188 1299.136719 582.414062 C 1300.636719 581.957031 1302.15625 581.578125 1303.691406 581.273438 C 1305.230469 580.96875 1306.777344 580.738281 1308.339844 580.582031 C 1309.898438 580.429688 1311.460938 580.351562 1313.03125 580.351562 C 1314.597656 580.351562 1316.160156 580.429688 1317.71875 580.582031 C 1319.28125 580.738281 1320.828125 580.96875 1322.367188 581.273438 C 1323.902344 581.578125 1325.421875 581.957031 1326.921875 582.414062 C 1328.421875 582.867188 1329.894531 583.394531 1331.34375 583.996094 C 1332.792969 584.597656 1334.207031 585.265625 1335.589844 586.003906 C 1336.972656 586.742188 1338.316406 587.546875 1339.617188 588.417969 C 1340.921875 589.289062 1342.179688 590.222656 1343.390625 591.214844 C 1344.601562 592.210938 1345.761719 593.261719 1346.871094 594.371094 C 1347.980469 595.480469 1349.03125 596.640625 1350.023438 597.851562 C 1351.019531 599.0625 1351.953125 600.320312 1352.824219 601.625 C 1353.695312 602.925781 1354.5 604.269531 1355.238281 605.652344 C 1355.976562 607.035156 1356.644531 608.449219 1357.246094 609.898438 C 1357.84375 611.34375 1358.375 612.820312 1358.828125 614.320312 C 1359.28125 615.820312 1359.664062 617.339844 1359.96875 618.875 C 1360.273438 620.414062 1360.503906 621.960938 1360.660156 623.519531 C 1360.8125 625.082031 1360.890625 626.644531 1360.890625 628.210938 Z M 1360.890625 628.210938 " fill-opacity="1" fill-rule="nonzero"/></g><g clip-path="url(#4bea12fda7)"><path fill="#ffc20f" d="M 1284.78125 636.761719 L 1284.78125 379.898438 C 1284.78125 375.847656 1287.375 372.246094 1291.21875 370.964844 L 1328.882812 358.410156 C 1334.980469 356.378906 1341.277344 360.917969 1341.277344 367.34375 L 1341.277344 636.761719 C 1341.277344 641.960938 1337.0625 646.175781 1331.859375 646.175781 L 1294.195312 646.175781 C 1288.996094 646.175781 1284.78125 641.960938 1284.78125 636.761719 Z M 1284.78125 636.761719 " fill-opacity="1" fill-rule="nonzero"/></g><g clip-path="url(#0dea2d4784)"><path stroke-linecap="round" transform="matrix(4.3475, 0, 0, 4.35, 70.431924, 752.403085)" fill="none" stroke-linejoin="miter" d="M 150.000391 75.374297 L 187.186815 112.5618 C 207.72484 133.099697 241.024332 133.099697 261.562357 112.5618 L 263.406089 110.71823 C 282.926109 91.197754 282.767972 59.391896 263.247952 39.872319 C 242.346032 18.970736 208.128269 20.832267 189.396238 43.698648 L 178.500069 56.999655 " stroke="#ffc20f" stroke-width="25" stroke-opacity="1" stroke-miterlimit="4"/></g><g clip-path="url(#1a74f4f159)"><path stroke-linecap="round" transform="matrix(4.3475, 0, 0, 4.35, 70.431924, 752.403085)" fill="none" stroke-linejoin="miter" d="M 148.749672 74.374836 L 111.56235 37.187333 C 91.024324 16.649436 57.725732 16.649436 37.187706 37.187333 L 36.149933 38.225408 C 16.184255 58.190388 16.274105 90.648185 36.238885 110.613165 C 56.996146 131.371069 90.841029 130.33479 110.40867 108.451707 L 124.65177 92.522287 " stroke="#ffc20f" stroke-width="25" stroke-opacity="1" stroke-miterlimit="4"/></g><g clip-path="url(#c951e4d055)"><path stroke-linecap="butt" transform="matrix(4.094088, 0, 0, 4.089843, 921.803689, 950.953964)" fill="none" stroke-linejoin="miter" d="M 36.922767 57.10295 C 36.922767 59.892826 39.184984 62.155482 41.97483 62.155482 C 44.76563 62.155482 47.027848 59.892826 47.027848 57.10295 C 47.027848 54.312119 44.76563 52.050419 41.97483 52.050419 C 39.184984 52.050419 36.922767 54.312119 36.922767 57.10295 Z M 36.922767 57.10295 L 22.542275 57.10295 L 8.940345 43.500275 L 0.00119803 43.500275 " stroke="#ffc20f" stroke-width="3" stroke-opacity="1" stroke-miterlimit="4"/></g><g clip-path="url(#21ecc949d2)"><path stroke-linecap="butt" transform="matrix(4.094088, 0, 0, 4.089843, 921.803689, 950.953964)" fill="none" stroke-linejoin="miter" d="M 33.035683 43.631125 C 33.035683 46.207056 35.124251 48.294927 37.700374 48.294927 C 40.275543 48.294927 42.363157 46.207056 42.363157 43.631125 C 42.363157 41.055194 40.275543 38.967323 37.700374 38.967323 C 35.124251 38.967323 33.035683 41.055194 33.035683 43.631125 Z M 33.035683 43.631125 L 24.09749 31.972099 L 0.00119803 31.972099 " stroke="#ffc20f" stroke-width="3" stroke-opacity="1" stroke-miterlimit="4"/></g><g clip-path="url(#1d140fbe07)"><path stroke-linecap="butt" transform="matrix(4.094088, 0, 0, 4.089843, 921.803689, 950.953964)" fill="none" stroke-linejoin="miter" d="M 56.125379 31.384706 C 56.125379 33.835518 58.111856 35.822147 60.56299 35.822147 C 63.014123 35.822147 65.0006 33.835518 65.0006 31.384706 C 65.0006 28.932939 63.014123 26.94631 60.56299 26.94631 C 58.111856 26.94631 56.125379 28.932939 56.125379 31.384706 Z M 56.125379 31.384706 L 0.00119803 31.347457 " stroke="#ffc20f" stroke-width="3" stroke-opacity="1" stroke-miterlimit="4"/></g><g clip-path="url(#57a7a80926)"><path stroke-linecap="butt" transform="matrix(4.094088, 0, 0, 4.089843, 921.803689, 950.953964)" fill="none" stroke-linejoin="miter" d="M 32.234223 21.790627 C 33.463129 24.054238 36.294002 24.892824 38.558128 23.664553 C 40.8213 22.435326 41.660925 19.604381 40.432019 17.34077 C 39.203113 15.07716 36.371286 14.238573 34.108114 15.466844 C 31.843988 16.696071 31.005317 19.527017 32.234223 21.790627 Z M 32.234223 21.790627 L 19.620761 31.225203 " stroke="#ffc20f" stroke-width="3" stroke-opacity="1" stroke-miterlimit="4"/></g><g clip-path="url(#e969544619)"><path stroke-linecap="butt" transform="matrix(4.094088, 0, 0, 4.089843, 921.803689, 950.953964)" fill="none" stroke-linejoin="miter" d="M 44.827648 6.097216 C 44.827648 8.636854 46.886638 10.695115 49.425551 10.695115 C 51.964463 10.695115 54.023453 8.636854 54.023453 6.097216 C 54.023453 3.558534 51.964463 1.500272 49.425551 1.500272 C 46.886638 1.500272 44.827648 3.558534 44.827648 6.097216 Z M 44.827648 6.097216 L 31.034894 6.097216 L 17.624742 19.506959 L 0.00119803 19.506959 " stroke="#ffc20f" stroke-width="3" stroke-opacity="1" stroke-miterlimit="4"/></g><g clip-path="url(#c6dee28146)"><g transform="matrix(1, 0, 0, 1, 255, 945)"><g clip-path="url(#486e5c8723)"><g clip-path="url(#34a538f32a)"><path stroke-linecap="butt" transform="matrix(-4.094088, 0, 0, 4.089843, 274.696685, 0.576346)" fill="none" stroke-linejoin="miter" d="M 36.922858 57.102635 C 36.922858 59.893466 39.185076 62.155167 41.974922 62.155167 C 44.765722 62.155167 47.027939 59.893466 47.027939 57.102635 C 47.027939 54.312759 44.765722 52.050104 41.974922 52.050104 C 39.185076 52.050104 36.922858 54.312759 36.922858 57.102635 Z M 36.922858 57.102635 L 22.542366 57.102635 L 8.939482 43.49996 L 0.00128935 43.49996 " stroke="#ffc20f" stroke-width="3" stroke-opacity="1" stroke-miterlimit="4"/></g><g clip-path="url(#55bf5de62f)"><path stroke-linecap="butt" transform="matrix(-4.094088, 0, 0, 4.089843, 274.696685, 0.576346)" fill="none" stroke-linejoin="miter" d="M 33.035774 43.63081 C 33.035774 46.206742 35.124342 48.294612 37.699511 48.294612 C 40.275635 48.294612 42.363248 46.206742 42.363248 43.63081 C 42.363248 41.055834 40.275635 38.967009 37.699511 38.967009 C 35.124342 38.967009 33.035774 41.055834 33.035774 43.63081 Z M 33.035774 43.63081 L 24.097581 31.971784 L 0.00128935 31.971784 " stroke="#ffc20f" stroke-width="3" stroke-opacity="1" stroke-miterlimit="4"/></g><g clip-path="url(#963f9d587f)"><path stroke-linecap="butt" transform="matrix(-4.094088, 0, 0, 4.089843, 274.696685, 0.576346)" fill="none" stroke-linejoin="miter" d="M 56.12547 31.384391 C 56.12547 33.835203 58.111948 35.821832 60.563081 35.821832 C 63.014214 35.821832 65.000691 33.835203 65.000691 31.384391 C 65.000691 28.933579 63.014214 26.94695 60.563081 26.94695 C 58.111948 26.94695 56.12547 28.933579 56.12547 31.384391 Z M 56.12547 31.384391 L 0.00128935 31.347142 " stroke="#ffc20f" stroke-width="3" stroke-opacity="1" stroke-miterlimit="4"/></g><g clip-path="url(#f8a322f8c1)"><path stroke-linecap="butt" transform="matrix(-4.094088, 0, 0, 4.089843, 274.696685, 0.576346)" fill="none" stroke-linejoin="miter" d="M 32.234314 21.790312 C 33.46322 24.053923 36.294093 24.893464 38.558219 23.664238 C 40.821391 22.435966 41.661016 19.604066 40.43211 17.340455 C 39.203204 15.076845 36.371377 14.238258 34.108205 15.46653 C 31.844079 16.695756 31.005408 19.526702 32.234314 21.790312 Z M 32.234314 21.790312 L 19.620852 31.224888 " stroke="#ffc20f" stroke-width="3" stroke-opacity="1" stroke-miterlimit="4"/></g><g clip-path="url(#e2c477bdbc)"><path stroke-linecap="butt" transform="matrix(-4.094088, 0, 0, 4.089843, 274.696685, 0.576346)" fill="none" stroke-linejoin="miter" d="M 44.827739 6.097857 C 44.827739 8.636539 46.885776 10.695756 49.425642 10.695756 C 51.964555 10.695756 54.023545 8.636539 54.023545 6.097857 C 54.023545 3.558219 51.964555 1.499957 49.425642 1.499957 C 46.885776 1.499957 44.827739 3.558219 44.827739 6.097857 Z M 44.827739 6.097857 L 31.034986 6.097857 L 17.624834 19.507599 L 0.00128935 19.507599 " stroke="#ffc20f" stroke-width="3" stroke-opacity="1" stroke-miterlimit="4"/></g></g></g></g></svg>